HIERARCHY
ROOT Hips
{
	OFFSET 0.000000 0.000000 0.000000
	CHANNELS 6 Xposition Yposition Zposition Yrotation Xrotation Zrotation
	JOINT Chest
	{
		OFFSET 0.000000 -0.009281 11.569106
		CHANNELS 3 Yrotation Xrotation Zrotation
		JOINT Chest2
		{
			OFFSET -0.000000 0.016865 9.269641
			CHANNELS 3 Yrotation Xrotation Zrotation
			JOINT Chest3
			{
				OFFSET -0.000000 0.000001 8.374491
				CHANNELS 3 Yrotation Xrotation Zrotation
				JOINT Chest4
				{
					OFFSET -0.000000 0.000001 8.374493
					CHANNELS 3 Yrotation Xrotation Zrotation
					JOINT Neck
					{
						OFFSET -0.000000 0.000002 12.152554
						CHANNELS 3 Yrotation Xrotation Zrotation
						JOINT Head
						{
							OFFSET -0.000000 0.040101 7.802319
							CHANNELS 3 Yrotation Xrotation Zrotation
							End Site
							{
								OFFSET -0.000000 0.020947 14.853096
							}
						}
					}
					JOINT RightCollar
					{
						OFFSET 2.894404 0.000001 6.791374
						CHANNELS 3 Yrotation Xrotation Zrotation
						JOINT RightShoulder
						{
							OFFSET 13.574684 0.000001 0.000000
							CHANNELS 3 Yrotation Xrotation Zrotation
							JOINT RightElbow
							{
								OFFSET 23.923903 0.000002 0.000000
								CHANNELS 3 Yrotation Xrotation Zrotation
								JOINT RightWrist
								{
									OFFSET 19.846718 0.012767 0.000000
									CHANNELS 3 Yrotation Xrotation Zrotation
									End Site
									{
										OFFSET 14.973145 0.000001 0.000000
									}
								}
							}
						}
					}
					JOINT LeftCollar
					{
						OFFSET -2.894404 0.000001 6.791374
						CHANNELS 3 Yrotation Xrotation Zrotation
						JOINT LeftShoulder
						{
							OFFSET -13.574684 -0.000001 0.000000
							CHANNELS 3 Yrotation Xrotation Zrotation
							JOINT LeftElbow
							{
								OFFSET -23.923903 -0.000002 0.000000
								CHANNELS 3 Yrotation Xrotation Zrotation
								JOINT LeftWrist
								{
									OFFSET -19.846718 0.012763 0.000000
									CHANNELS 3 Yrotation Xrotation Zrotation
									End Site
									{
										OFFSET -14.973145 -0.000001 0.000000
									}
								}
							}
						}
					}
				}
			}
		}
	}
	JOINT RightHip
	{
		OFFSET 9.469263 0.004643 0.045487
		CHANNELS 3 Yrotation Xrotation Zrotation
		JOINT RightKnee
		{
			OFFSET 0.000000 0.002661 -40.478676
			CHANNELS 3 Yrotation Xrotation Zrotation
			JOINT RightAnkle
			{
				OFFSET 0.000000 0.049106 -35.224068
				CHANNELS 3 Yrotation Xrotation Zrotation
				JOINT RightToe
				{
					OFFSET -0.000001 12.539529 -6.151390
					CHANNELS 3 Yrotation Xrotation Zrotation
					End Site
					{
						OFFSET -0.000001 5.044994 -1.291870
					}
				}
			}
		}
	}
	JOINT LeftHip
	{
		OFFSET -9.469263 0.004641 0.045487
		CHANNELS 3 Yrotation Xrotation Zrotation
		JOINT LeftKnee
		{
			OFFSET 0.000000 0.002661 -40.478676
			CHANNELS 3 Yrotation Xrotation Zrotation
			JOINT LeftAnkle
			{
				OFFSET 0.000000 0.049106 -35.224068
				CHANNELS 3 Yrotation Xrotation Zrotation
				JOINT LeftToe
				{
					OFFSET -0.000001 12.539529 -6.151390
					CHANNELS 3 Yrotation Xrotation Zrotation
					End Site
					{
						OFFSET -0.000001 5.044994 -1.291870
					}
				}
			}
		}
	}
}
MOTION
Frames: 15
Frame Time: 0.016667
11.440358 5.769444 83.054832 -6.717322 -1.370291 -105.615461 -0.759498 -6.408670 0.268883 -0.336332 -2.849025 0.107480 -0.336332 -2.849025 0.107483 -0.251696 -2.136829 0.079024 1.066075 -14.382324 -3.726697 0.556832 9.442487 -6.594358 -2.643301 32.830786 0.678979 12.819893 14.882735 42.912873 -26.701882 -38.536067 26.110497 25.635191 -22.718568 -24.410043 6.219219 29.295866 -0.477840 -12.747026 16.768024 -41.956752 8.397582 -19.679800 -10.847408 -39.840142 -44.541648 47.460403 -0.961637 -9.470066 -4.753515 2.381158 -2.617965 -8.184152 -0.443842 5.207387 2.119447 -0.061241 -0.033428 -0.020688 -0.662459 -9.780162 2.075842 0.880570 -1.040452 0.308154 -2.535992 3.488873 -0.799317 -0.095471 -0.066800 0.023041 
11.385065 5.773817 83.050323 -6.788749 -1.390013 -105.600086 -0.797320 -6.454151 0.292141 -0.347479 -2.871444 0.116001 -0.347480 -2.871444 0.116005 -0.260011 -2.153650 0.085351 1.133931 -14.548914 -3.731185 0.690157 9.136333 -6.571778 -2.565516 32.742342 0.800098 12.517073 14.165849 42.440190 -27.014515 -39.463139 26.273771 25.678554 -22.812193 -24.503317 6.213676 29.297700 -0.647351 -12.587071 15.920765 -41.583387 8.386625 -20.357179 -10.483246 -39.836887 -44.836616 47.611746 -0.980472 -9.470554 -4.779217 2.413034 -2.693746 -8.145356 -0.463396 5.212453 2.130889 -0.053600 -0.032375 -0.040168 -0.661680 -9.790779 2.026455 0.889300 -1.094259 0.247882 -2.465820 3.521122 -0.719028 -0.130530 -0.084815 0.022896 
11.326677 5.774257 83.044975 -6.874809 -1.430104 -105.583619 -0.809933 -6.485837 0.287899 -0.353307 -2.885470 0.114267 -0.353307 -2.885469 0.114271 -0.264385 -2.164170 0.084016 1.173388 -14.723760 -3.716668 0.777571 8.814062 -6.524608 -2.540772 32.599946 0.895115 12.338432 13.351451 42.056801 -27.169506 -40.217762 26.244686 25.694482 -22.870982 -24.593954 6.137314 29.251371 -0.865074 -12.292896 14.950084 -41.067936 8.435516 -21.026842 -10.220839 -39.783465 -45.225220 47.707324 -0.968594 -9.481301 -4.803248 2.444596 -2.786834 -8.112679 -0.505166 5.229933 2.108038 -0.040567 -0.032094 -0.041177 -0.644559 -9.812072 1.969560 0.902733 -1.165588 0.181876 -2.394175 3.569318 -0.623463 -0.163242 -0.104674 0.023600 
11.266443 5.774726 83.039375 -6.970327 -1.474805 -105.572369 -0.812812 -6.511301 0.258940 -0.354842 -2.896002 0.102606 -0.354842 -2.896002 0.102612 -0.265588 -2.172063 0.075256 1.184947 -14.898727 -3.684284 0.819234 8.490799 -6.454925 -2.374086 32.472782 1.138431 12.218888 12.606968 41.738436 -27.219532 -40.964582 26.169709 25.625753 -22.936749 -24.640886 5.967398 29.179275 -1.154457 -11.954621 14.002037 -40.426527 8.490155 -21.706966 -10.074939 -39.621460 -45.694853 47.689655 -0.959270 -9.493496 -4.838914 2.481561 -2.897142 -8.071754 -0.550265 5.256621 2.084015 -0.028961 -0.032939 -0.042734 -0.624531 -9.834148 1.913329 0.913930 -1.256517 0.115424 -2.312125 3.628189 -0.531451 -0.197035 -0.120742 0.023775 
11.201786 5.777897 83.032326 -7.071712 -1.520853 -105.578851 -0.811011 -6.562180 0.232324 -0.354803 -2.918252 0.091862 -0.354803 -2.918252 0.091865 -0.265607 -2.188743 0.067189 1.183576 -15.056956 -3.645859 0.838010 8.198174 -6.379494 -2.051336 32.372733 1.541588 12.093727 12.085134 41.385028 -27.296525 -41.813008 26.282952 25.479010 -23.023232 -24.646697 5.704221 29.105980 -1.469151 -11.638229 13.178745 -39.808525 8.487258 -22.410310 -9.952614 -39.474296 -46.138088 47.586246 -0.958164 -9.491102 -4.862001 2.527820 -3.036604 -8.014724 -0.608541 5.293836 2.033140 -0.014434 -0.035112 -0.045051 -0.610208 -9.849784 1.857492 0.924029 -1.371066 0.061309 -2.217810 3.701179 -0.431753 -0.230887 -0.135446 0.024067 
11.131627 5.784446 83.023369 -7.165076 -1.568799 -105.607640 -0.799806 -6.611703 0.218224 -0.351044 -2.940735 0.085202 -0.351044 -2.940735 0.085203 -0.262815 -2.205601 0.062196 1.176166 -15.217643 -3.602415 0.847278 7.900833 -6.297078 -1.696555 32.300460 1.985183 11.884845 11.524302 40.954473 -27.473070 -42.686807 26.549014 25.347744 -23.173877 -24.651148 5.489114 28.802368 -1.722795 -11.474773 12.573852 -39.322881 8.419881 -22.963888 -9.750181 -39.378742 -46.450337 47.568893 -0.961186 -9.459960 -4.850736 2.577186 -3.205445 -7.960262 -0.676343 5.337491 1.988716 0.004841 -0.035960 -0.045121 -0.596124 -9.850386 1.810557 0.930558 -1.499045 0.004691 -2.108672 3.783397 -0.317458 -0.265966 -0.149861 0.023569 
11.061241 5.791985 83.013748 -7.253649 -1.615283 -105.638848 -0.799770 -6.653944 0.207470 -0.352469 -2.958225 0.081645 -0.352468 -2.958225 0.081649 -0.263897 -2.218717 0.059514 1.182944 -15.386353 -3.551376 0.885987 7.589372 -6.195172 -1.468744 32.202412 2.285009 11.680183 10.747472 40.494791 -27.690552 -43.402167 26.841899 25.278962 -23.302348 -24.705708 5.375480 28.465889 -1.924208 -11.424571 11.959720 -38.863442 8.325668 -23.385270 -9.520373 -39.322765 -46.644895 47.621646 -0.960236 -9.418776 -4.849606 2.620848 -3.383665 -7.907083 -0.747760 5.383608 1.946508 0.024650 -0.036149 -0.044266 -0.581006 -9.843279 1.754603 0.932629 -1.632745 -0.059653 -1.991161 3.866312 -0.188835 -0.297595 -0.159662 0.023009 
10.993312 5.796358 83.005974 -7.348367 -1.660767 -105.666045 -0.810868 -6.702553 0.204123 -0.359693 -2.977843 0.082145 -0.359694 -2.977843 0.082147 -0.269309 -2.233433 0.059842 1.204963 -15.552616 -3.497156 0.953901 7.283087 -6.082034 -1.507273 32.018154 2.230116 11.699545 9.873552 40.199136 -27.842371 -43.958927 27.065880 25.210472 -23.388274 -24.721791 5.231207 28.299953 -2.144565 -11.371598 11.187154 -38.352540 8.266808 -23.845312 -9.374996 -39.273093 -46.805733 47.712628 -0.960981 -9.388758 -4.875305 2.664785 -3.559969 -7.831400 -0.827006 5.429734 1.909983 0.045745 -0.035268 -0.042469 -0.562365 -9.839757 1.676981 0.928836 -1.774682 -0.119402 -1.877619 3.948969 -0.054046 -0.319135 -0.162498 0.022294 
10.929466 5.799796 82.999748 -7.451035 -1.701654 -105.684309 -0.816159 -6.754716 0.191248 -0.363243 -2.999721 0.077483 -0.363243 -2.999720 0.077485 -0.271989 -2.249837 0.056312 1.214855 -15.725688 -3.429721 1.003948 6.963906 -5.948956 -1.744544 31.632006 2.009056 11.985330 9.222575 40.051734 -27.852137 -44.417922 27.183320 25.139088 -23.428114 -24.770106 5.034871 28.109563 -2.376468 -11.286955 10.437361 -37.808775 8.234619 -24.484918 -9.283854 -39.276094 -47.061837 47.812533 -0.965650 -9.358930 -4.892300 2.707888 -3.753964 -7.756736 -0.914176 5.482586 1.850532 0.068669 -0.030922 -0.043001 -0.545750 -9.841260 1.575333 0.919092 -1.924030 -0.148624 -1.770537 4.031361 0.063487 -0.330250 -0.160333 0.021551 
10.867782 5.802721 82.993828 -7.556424 -1.745123 -105.697369 -0.813330 -6.812222 0.167826 -0.362780 -3.025054 0.066345 -0.362781 -3.025055 0.066343 -0.271693 -2.268831 0.047953 1.208016 -15.906775 -3.346965 1.028317 6.629466 -5.793660 -1.958521 31.211424 1.890750 12.334485 8.754012 39.910762 -27.776098 -44.971523 27.254531 25.064279 -23.460407 -24.844540 4.798922 27.823028 -2.663191 -11.157472 9.723399 -37.199754 8.236786 -25.117532 -9.195478 -39.252090 -47.354251 47.872454 -0.962730 -9.324249 -4.862249 2.740541 -3.965956 -7.703623 -1.006150 5.538973 1.769912 0.096165 -0.021348 -0.041233 -0.525574 -9.844259 1.485497 0.909969 -2.079890 -0.175402 -1.672701 4.118761 0.162800 -0.333875 -0.159455 0.020399 
10.812057 5.807453 82.987495 -7.657571 -1.785415 -105.704595 -0.817175 -6.875665 0.141207 -0.364729 -3.052130 0.054028 -0.364729 -3.052129 0.054030 -0.273213 -2.289129 0.038690 1.192572 -16.077926 -3.264022 1.035948 6.313065 -5.641690 -2.057259 30.883038 1.819539 12.591964 8.242346 39.746384 -27.794429 -45.680462 27.429924 24.909338 -23.563663 -24.844279 4.567738 27.403754 -2.988502 -11.052051 9.117830 -36.599316 8.201438 -25.589994 -9.044824 -39.193254 -47.643233 47.881566 -0.953840 -9.287973 -4.820908 2.759398 -4.176683 -7.651763 -1.096542 5.596249 1.665305 0.122772 -0.013073 -0.040795 -0.510468 -9.834479 1.408176 0.903964 -2.258781 -0.194948 -1.577835 4.218270 0.239228 -0.334609 -0.157018 0.019286 
10.757635 5.813623 82.981041 -7.753568 -1.821748 -105.697751 -0.819640 -6.911045 0.115755 -0.367116 -3.068176 0.041374 -0.367116 -3.068176 0.041377 -0.275063 -2.301160 0.029175 1.169462 -16.266958 -3.188124 1.027053 5.962990 -5.505560 -2.091913 30.591458 1.833604 12.705315 7.557371 39.437328 -27.981588 -46.487039 27.731065 24.744288 -23.727913 -24.808359 4.353944 26.871221 -3.271905 -11.039355 8.607774 -36.085255 8.118169 -26.036099 -8.861534 -39.111384 -47.820436 47.842757 -0.951685 -9.245600 -4.788233 2.786744 -4.395030 -7.602403 -1.192101 5.657062 1.576640 0.147825 -0.003711 -0.036350 -0.497587 -9.806116 1.332486 0.900933 -2.461434 -0.217499 -1.489334 4.328010 0.308823 -0.330964 -0.154922 0.017905 
10.705404 5.823197 82.975220 -7.845060 -1.852604 -105.671352 -0.829005 -6.933149 0.092513 -0.371939 -3.078950 0.029226 -0.371939 -3.078950 0.029226 -0.278740 -2.309233 0.020039 1.158149 -16.457273 -3.121517 1.036436 5.610703 -5.382685 -2.087386 30.383895 1.891160 12.682401 6.616589 39.007019 -28.188131 -47.272347 28.032269 24.611516 -23.853486 -24.763816 4.133645 26.396046 -3.540717 -11.088559 8.038909 -35.606893 8.003791 -26.490592 -8.687774 -39.013996 -47.994961 47.880719 -0.955430 -9.196390 -4.748139 2.818720 -4.619244 -7.580452 -1.282157 5.720535 1.480919 0.166184 0.005544 -0.034570 -0.487957 -9.757864 1.246980 0.899386 -2.689605 -0.267701 -1.407428 4.444643 0.395067 -0.320417 -0.149646 0.017151 
10.659624 5.833743 82.971626 -7.940754 -1.885206 -105.619866 -0.851710 -6.980168 0.082705 -0.382603 -3.099060 0.024697 -0.382604 -3.099060 0.024698 -0.286757 -2.324312 0.016578 1.175750 -16.626106 -3.073554 1.091777 5.298859 -5.284755 -2.032590 30.351861 1.907331 12.643091 5.484236 38.552812 -28.219184 -47.908893 28.182172 24.454454 -23.930546 -24.712442 3.868197 26.121005 -3.854453 -11.087681 7.265742 -35.106032 7.912854 -27.058112 -8.571889 -38.980767 -48.250181 47.971557 -0.949465 -9.170462 -4.729795 2.844618 -4.822895 -7.583415 -1.365952 5.783802 1.390973 0.180175 0.011247 -0.032140 -0.479238 -9.709013 1.142645 0.906294 -2.931442 -0.330660 -1.332407 4.565488 0.488304 -0.308209 -0.142198 0.015311 
10.623955 5.843334 82.968933 -8.045584 -1.921142 -105.555424 -0.875228 -7.030968 0.079712 -0.393170 -3.120000 0.023551 -0.393170 -3.120001 0.023552 -0.294684 -2.340016 0.015650 1.201775 -16.786372 -3.032158 1.159837 5.003017 -5.196450 -1.970387 30.330787 1.850199 12.722750 4.437110 38.179043 -28.095256 -48.521008 28.240826 24.249905 -23.979155 -24.654350 3.506481 25.918302 -4.252994 -10.989772 6.310943 -34.561263 7.873618 -27.588150 -8.473708 -38.889530 -48.526387 47.956821 -0.947094 -9.169632 -4.756662 2.873391 -5.016245 -7.579844 -1.441278 5.848537 1.333799 0.188875 0.016742 -0.029957 -0.465556 -9.676014 1.050744 0.904585 -3.171674 -0.392920 -1.252685 4.688646 0.564840 -0.297793 -0.134966 0.013483 
